<mxfile modified="2021-04-27T08:13:38.913Z" host="app.diagrams.net" agent="5.0 (Windows NT 10.0; Win64; x64) AppleWebKit/537.36 (KHTML, like Gecko) Chrome/90.0.4430.93 Safari/537.36" etag="Eb3HuxVDDjRCeSpKp8QC" version="14.6.6" type="github">
  <diagram name="Page-1" id="97a40813-6b03-0c74-37c1-0168de264b11">
    <mxGraphModel dx="749" dy="545" grid="1" gridSize="10" guides="1" tooltips="1" connect="1" arrows="1" fold="1" page="1" pageScale="1" pageWidth="500" pageHeight="300" background="#ffffff" math="0" shadow="0">
      <root>
        <mxCell id="0" />
        <mxCell id="1" parent="0" />
        <mxCell id="VF0xDYY6wkxBcJapf5UX-1" value="" style="rounded=0;whiteSpace=wrap;html=1;fillColor=#fff2cc;strokeColor=#d6b656;" parent="1" vertex="1">
          <mxGeometry x="10" y="10" width="30" height="280" as="geometry" />
        </mxCell>
        <mxCell id="VF0xDYY6wkxBcJapf5UX-2" value="" style="rounded=0;whiteSpace=wrap;html=1;rotation=62;fillColor=#ffe6cc;strokeColor=#FF8000;dashed=1;strokeWidth=2;" parent="1" vertex="1">
          <mxGeometry x="42" y="180" width="70" height="70" as="geometry" />
        </mxCell>
        <mxCell id="VF0xDYY6wkxBcJapf5UX-3" value="" style="ellipse;whiteSpace=wrap;html=1;aspect=fixed;fillColor=none;strokeColor=#0066CC;gradientColor=none;strokeWidth=3;" parent="1" vertex="1">
          <mxGeometry x="90" y="210" width="80" height="80" as="geometry" />
        </mxCell>
        <mxCell id="VF0xDYY6wkxBcJapf5UX-4" value="SWD for the win!" style="text;html=1;strokeColor=none;fillColor=none;align=center;verticalAlign=middle;whiteSpace=wrap;rounded=0;rotation=30;fontSize=23;" parent="1" vertex="1">
          <mxGeometry x="140" y="70" width="120" height="70" as="geometry" />
        </mxCell>
      </root>
    </mxGraphModel>
  </diagram>
</mxfile>
